{"title":"F1 2012 GP Australii PL Polish Commentary","uid":7111391,"size":5112799232,"categoryP":"video","categoryS":"tv_shows","magnet":"?xt=urn:btih:dda379457bf143faa4f6860ca057fc5fdb75291c&amp;dn=F1+2012+GP+Australii+PL+Polish+Commentary&amp;tr=udp%3A%2F%2Ftracker.openbittorrent.com%3A80&amp;tr=udp%3A%2F%2Fopen.demonii.com%3A1337&amp;tr=udp%3A%2F%2Ftracker.coppersurfer.tk%3A6969&amp;tr=udp%3A%2F%2Fexodus.desync.com%3A6969","seeders":0,"leechers":0,"uploader":"upload3rs","files":2,"time":1332081961,"description":"\n\n\nGeneral\nComplete name                    : F1.2012.GP.Australii.PL\nFormat                           : MPEG-PS\nFile size                        : 3.81 GiB\nDuration                         : 1h 26mn\nOverall bit rate                 : 6 343 Kbps\n\nVideo\nID                               : 224 (0xE0)\nFormat                           : MPEG Video\nFormat version                   : Version 2\nFormat profile                   : Main@Main\nFormat settings, BVOP            : Yes\nFormat settings, Matrix          : Default\nDuration                         : 1h 26mn\nBit rate mode                    : Variable\nBit rate                         : 5 961 Kbps\nNominal bit rate                 : 10 000 Kbps\nWidth                            : 720 pixels\nHeight                           : 576 pixels\nDisplay aspect ratio             : 16:9\nActiveFormatDescription          : Full frame 16:9 image\nFrame rate                       : 25.000 fps\nStandard                         : PAL\nColor space                      : YUV\nChroma subsampling               : 4:2:0\nBit depth                        : 8 bits\nScan type                        : Interlaced\nScan order                       : Top Field First\nCompression mode                 : Lossy\nBits/(Pixel*Frame)               : 0.575\nStream size                      : 3.58 GiB (94%)\n\nAudio\nID                               : 192 (0xC0)\nFormat                           : MPEG Audio\nFormat version                   : Version 1\nFormat profile                   : Layer 2\nDuration                         : 1h 26mn\nBit rate mode                    : Constant\nBit rate                         : 256 Kbps\nChannel(s)                       : 2 channels\nSampling rate                    : 48.0 KHz\nCompression mode                 : Lossy\nDelay relative to video          : -247ms\nStream size                      : 158 MiB (4%)\n\n","torrent":{"xt":"urn:btih:dda379457bf143faa4f6860ca057fc5fdb75291c","amp;dn":"F1+2012+GP+Australii+PL+Polish+Commentary","amp;tr":["udp%3A%2F%2Ftracker.openbittorrent.com%3A80","udp%3A%2F%2Fopen.demonii.com%3A1337","udp%3A%2F%2Ftracker.coppersurfer.tk%3A6969","udp%3A%2F%2Fexodus.desync.com%3A6969"],"infoHash":"dda379457bf143faa4f6860ca057fc5fdb75291c","infoHashBuffer":{"type":"Buffer","data":[221,163,121,69,123,241,67,250,164,246,134,12,160,87,252,95,219,117,41,28]},"announce":[],"urlList":[]}}